<svg width="115" height="123" xmlns="http://www.w3.org/2000/svg" xmlns:xlink="http://www.w3.org/1999/xlink" xml:space="preserve" overflow="hidden"><defs><clipPath id="clip0"><rect x="494" y="113" width="115" height="123"/></clipPath></defs><g clip-path="url(#clip0)" transform="translate(-494 -113)"><path d="M0 0 262.263 0 262.263 131.131 0 131.131Z" fill="#FFFFFF" transform="matrix(1.00158 0 0 1 420.805 108.012)"/><path d="M115.803 116.178C115.667 117.362 115.224 118.287 114.483 118.929 113.743 119.57 112.769 119.891 111.548 119.891 110.216 119.891 109.155 119.41 108.365 118.46 107.564 117.511 107.169 116.24 107.169 114.649L107.169 113.563C107.169 112.514 107.354 111.602 107.724 110.812 108.094 110.023 108.624 109.418 109.303 108.987 109.981 108.567 110.783 108.345 111.671 108.345 112.867 108.345 113.817 108.678 114.533 109.344 115.248 110.01 115.667 110.936 115.791 112.108L114.298 112.108C114.175 111.207 113.891 110.565 113.46 110.158 113.028 109.751 112.436 109.554 111.659 109.554 110.709 109.554 109.969 109.899 109.439 110.603 108.896 111.306 108.637 112.292 108.637 113.588L108.637 114.673C108.637 115.894 108.896 116.856 109.402 117.584 109.907 118.312 110.623 118.67 111.535 118.67 112.362 118.67 112.991 118.485 113.422 118.115 113.867 117.745 114.15 117.091 114.298 116.166L115.803 116.166 115.803 116.178Z" transform="matrix(1.00158 0 0 1 420.805 108.012)"/><path d="M119.38 118.534 124.697 118.534 124.697 119.743 117.888 119.743 117.888 108.518 119.38 108.518 119.38 118.534Z" transform="matrix(1.00158 0 0 1 420.805 108.012)"/><path d="M134.601 114.488C134.601 115.586 134.416 116.548 134.046 117.362 133.676 118.176 133.158 118.805 132.467 119.237 131.776 119.669 130.999 119.879 130.099 119.879 129.211 119.879 128.434 119.657 127.743 119.225 127.064 118.793 126.534 118.176 126.152 117.362 125.77 116.56 125.584 115.623 125.572 114.562L125.572 113.748C125.572 112.663 125.757 111.713 126.14 110.886 126.509 110.06 127.04 109.431 127.731 108.987 128.421 108.542 129.199 108.333 130.087 108.333 130.987 108.333 131.776 108.555 132.467 108.987 133.158 109.418 133.676 110.047 134.046 110.874 134.416 111.7 134.601 112.663 134.601 113.748L134.601 114.488ZM133.133 113.76C133.133 112.428 132.862 111.404 132.331 110.701 131.801 109.986 131.049 109.628 130.087 109.628 129.149 109.628 128.409 109.986 127.879 110.701 127.336 111.416 127.064 112.404 127.052 113.662L127.052 114.488C127.052 115.784 127.324 116.795 127.866 117.535 128.409 118.275 129.149 118.645 130.111 118.645 131.073 118.645 131.813 118.3 132.331 117.597 132.85 116.906 133.121 115.907 133.146 114.599L133.146 113.76 133.133 113.76Z" transform="matrix(1.00158 0 0 1 420.805 108.012)"/><path d="M144.802 108.518 144.802 116.154C144.802 117.214 144.469 118.078 143.803 118.756 143.137 119.435 142.248 119.805 141.114 119.891L140.719 119.904C139.486 119.904 138.511 119.571 137.783 118.904 137.056 118.238 136.686 117.325 136.673 116.166L136.673 108.518 138.141 108.518 138.141 116.117C138.141 116.931 138.363 117.56 138.807 118.004 139.251 118.448 139.893 118.682 140.719 118.682 141.558 118.682 142.199 118.46 142.643 118.016 143.087 117.572 143.309 116.943 143.309 116.129L143.309 108.518 144.802 108.518Z" transform="matrix(1.00158 0 0 1 420.805 108.012)"/><path d="M147.219 119.743 147.219 108.518 150.389 108.518C151.364 108.518 152.227 108.74 152.98 109.159 153.732 109.591 154.312 110.208 154.719 110.997 155.126 111.799 155.335 112.712 155.335 113.736L155.335 114.451C155.335 115.512 155.126 116.437 154.719 117.239 154.312 118.041 153.732 118.645 152.967 119.077 152.215 119.509 151.327 119.718 150.315 119.731L147.219 119.731 147.219 119.743ZM148.699 109.727 148.699 118.534 150.254 118.534C151.388 118.534 152.276 118.177 152.918 117.473 153.547 116.758 153.868 115.746 153.868 114.439L153.868 113.785C153.868 112.515 153.572 111.516 152.967 110.812 152.363 110.109 151.524 109.751 150.414 109.739L148.699 109.739 148.699 109.727Z" transform="matrix(1.00158 0 0 1 420.805 108.012)"/><path d="M99.2255 88.8307 99.2255 104.114C99.2255 104.46 98.9295 104.743 98.5718 104.743L95.1552 104.719C95.1552 98.7482 95.1552 98.7482 95.1552 98.7482 95.1552 98.403 94.8592 98.1191 94.5015 98.1191L89.0373 98.1191C88.6796 98.1191 88.3836 98.403 88.3836 98.7482L88.3587 104.719C85.1023 104.719 84.9545 104.743 84.9545 104.743 84.5968 104.743 84.3008 104.46 84.3008 104.114L84.3008 88.8307C84.3008 88.4852 84.5968 88.2016 84.9545 88.2016L88.3587 88.2262C88.3587 93.9993 88.3836 94.1226 88.3836 94.1226 88.3836 94.4678 88.6796 94.7517 89.0373 94.7517L94.5015 94.7517C94.8592 94.7517 95.1552 94.4678 95.1552 94.1226L95.1428 88.2138C98.9541 88.2138 98.5718 88.2016 98.5718 88.2016 98.9295 88.2016 99.2255 88.4852 99.2255 88.8307Z" transform="matrix(1.00158 0 0 1 420.805 108.012)"/><path d="M103.432 90.1135 105.886 90.1135C106.207 90.1135 106.466 90.3601 106.466 90.6685L106.466 104.201C106.466 104.509 106.207 104.756 105.886 104.756L103.432 104.756C103.111 104.756 102.852 104.509 102.852 104.201L102.852 90.681C102.852 90.3725 103.111 90.1135 103.432 90.1135Z" transform="matrix(1.00158 0 0 1 420.805 108.012)"/><path d="M123.623 90.8534 118.714 104.57C118.628 104.793 118.418 104.953 118.171 104.953L114.422 104.953C114.175 104.953 113.953 104.805 113.879 104.583L108.945 90.8659C108.81 90.5082 109.093 90.1257 109.488 90.1257L111.967 90.1257C112.214 90.1257 112.436 90.2738 112.522 90.5082L115.754 99.772C115.926 100.278 116.679 100.278 116.852 99.772L120.059 90.5082C120.132 90.2863 120.355 90.1257 120.614 90.1257L123.093 90.1257C123.463 90.1135 123.746 90.4958 123.623 90.8534Z" transform="matrix(1.00158 0 0 1 420.805 108.012)"/><path d="M136.242 102.548 136.242 104.213C136.242 104.521 135.983 104.768 135.662 104.768L126.67 104.768C126.349 104.768 126.09 104.521 126.09 104.213L126.09 90.681C126.09 90.3725 126.349 90.1257 126.67 90.1257L135.563 90.1257C135.884 90.1257 136.143 90.3725 136.143 90.681L136.143 92.3461C136.143 92.6545 135.884 92.9014 135.563 92.9014L130.284 92.9014C129.963 92.9014 129.704 93.1479 129.704 93.4564 129.704 93.4564 129.692 93.4439 129.692 96.0099 129.692 96.0099 129.618 96.0223 135.095 96.0223L135.095 98.7607C129.433 98.7607 129.667 98.7853 129.667 98.7853 129.667 101.474 129.692 101.425 129.692 101.425 129.692 101.733 129.951 101.98 130.272 101.98L135.65 101.98C135.983 101.992 136.242 102.239 136.242 102.548Z" transform="matrix(1.00158 0 0 1 420.805 108.012)"/><path d="M158.049 88.8307 158.049 104.114C158.049 104.46 157.753 104.743 157.395 104.743L154.632 104.743C154.275 104.743 153.978 104.46 153.978 104.114L153.941 94.4061C153.941 93.7895 150.278 98.9951 150.278 98.9951 150.155 99.1678 149.958 99.2665 149.735 99.2665L148.391 99.2665C148.169 99.2665 147.972 99.1678 147.848 98.9951 147.848 98.9951 144.222 93.7524 144.222 94.3691L144.247 104.114C144.247 104.46 143.951 104.743 143.593 104.743L140.83 104.743C140.472 104.743 140.176 104.46 140.176 104.114L140.176 88.8307C140.176 88.4852 140.472 88.2016 140.83 88.2016L144.53 88.2016C144.752 88.2016 144.95 88.3124 145.073 88.4852L148.564 93.5305C148.823 93.9006 149.39 93.9006 149.649 93.5305L153.14 88.4852C153.263 88.3124 153.461 88.2016 153.682 88.2016L157.383 88.2016C157.753 88.2016 158.049 88.4852 158.049 88.8307Z" transform="matrix(1.00158 0 0 1 420.805 108.012)"/><path d="M177.55 100.364C177.143 101.339 176.563 102.178 175.823 102.868 175.576 103.103 175.564 103.485 175.798 103.732L178.056 106.113C173.924 106.113 173.702 106.137 173.702 106.137 173.504 106.137 173.332 106.051 173.208 105.915L172.468 105.076C172.308 104.891 172.049 104.817 171.814 104.879 171.099 105.039 170.334 105.113 169.496 105.113 167.596 105.113 165.98 104.743 164.648 103.991 163.316 103.238 162.317 102.215 161.663 100.907 160.997 99.5996 160.664 98.1316 160.664 96.4908 160.664 94.8749 160.997 93.4194 161.663 92.1241 162.329 90.8289 163.328 89.805 164.648 89.0402 165.968 88.2754 167.596 87.8932 169.496 87.8932 171.37 87.8932 172.974 88.2754 174.294 89.0402 175.626 89.805 176.625 90.8413 177.291 92.1366 177.957 93.4439 178.302 94.8874 178.302 96.4908 178.29 97.9096 178.043 99.1924 177.55 100.364ZM166.017 100.352C166.819 101.314 167.966 101.808 169.483 101.808L169.532 101.808 168.472 100.623C168.102 100.216 168.41 99.5747 168.965 99.5747L171.765 99.5747C171.95 99.5747 172.135 99.6488 172.259 99.7969 172.555 100.118 172.998 100.401 173.22 100.031 173.406 99.7228 173.665 99.0567 173.788 98.6745 174.01 97.9959 174.133 97.2556 174.133 96.4416 174.133 95.4424 173.948 94.5418 173.591 93.7524 173.233 92.963 172.69 92.3464 171.999 91.9022 171.296 91.4458 170.457 91.2236 169.496 91.2236 168.003 91.2236 166.856 91.7173 166.042 92.6916 165.24 93.6662 164.833 94.9366 164.833 96.5157 164.821 98.0945 165.215 99.3773 166.017 100.352Z" transform="matrix(1.00158 0 0 1 420.805 108.012)"/><path d="M131.271 80.4177C112.177 80.4177 96.6354 64.8875 96.6354 45.78 96.6354 26.6723 112.177 11.142 131.271 11.142 150.365 11.142 165.906 26.6847 165.906 45.78 165.906 64.8753 150.377 80.4177 131.271 80.4177ZM131.271 14.0655C113.78 14.0655 99.5586 28.2883 99.5586 45.78 99.5586 63.2716 113.78 77.4944 131.271 77.4944 148.761 77.4944 162.983 63.2716 162.983 45.78 162.983 28.2883 148.761 14.0655 131.271 14.0655Z" transform="matrix(1.00158 0 0 1 420.805 108.012)"/><path d="M131.295 77.6423C148.953 77.6423 163.267 63.3273 163.267 45.6688 163.267 28.0105 148.953 13.6955 131.295 13.6955 113.638 13.6955 99.3242 28.0105 99.3242 45.6688 99.3242 63.3273 113.638 77.6423 131.295 77.6423Z" fill="#FFC000" transform="matrix(1.00158 0 0 1 420.805 108.012)"/><path d="M126.127 29.8055C125.757 27.5358 126.966 25.2537 129.063 24.2916 129.421 26.5613 128.212 28.831 126.127 29.8055Z" fill="#FFFFFF" fill-rule="evenodd" transform="matrix(1.00158 0 0 1 420.805 108.012)"/><path d="M115.692 38.6376C115.692 38.6376 115.877 38.2058 115.446 37.799 113.583 36.0349 109.438 31.8409 111.807 30.6443 114.434 29.2998 121.625 31.2241 129.593 35.4183 125.572 37.7495 122.821 39.6617 119.911 42.0053 116.691 39.6492 116.111 39.1188 115.692 38.6376Z" fill="#FFFFFF" fill-rule="evenodd" transform="matrix(1.00158 0 0 1 420.805 108.012)"/><path d="M147.194 52.3546C146.282 53.7114 143.655 53.1073 139.448 51.8241 139.251 51.7625 139.066 51.775 138.893 51.849 140.176 49.9863 140.46 46.5448 140.016 44.0284 140.016 44.0159 140.016 44.0035 140.016 43.9913 140.016 43.9789 140.016 43.9789 140.016 43.9667 139.88 42.9796 139.67 42.2027 139.411 41.8572 144.999 46.372 148.12 50.7757 147.194 52.3546Z" fill="#FFFFFF" fill-rule="evenodd" transform="matrix(1.00158 0 0 1 420.805 108.012)"/><path d="M142.754 42.0545C139.917 39.6738 137.031 37.737 133.022 35.418 140.99 31.224 148.157 29.3491 150.796 30.6936 153.165 31.9025 149.008 36.0841 147.145 37.8606 146.812 38.1688 146.898 38.3169 146.898 38.6992 146.467 39.1804 145.973 39.6984 142.754 42.0545Z" fill="#FFFFFF" fill-rule="evenodd" transform="matrix(1.00158 0 0 1 420.805 108.012)"/><path d="M123.204 41.808C122.957 42.1532 122.735 42.9305 122.599 43.9172 122.599 43.9172 122.599 43.9297 122.599 43.9418 122.599 43.9543 122.599 43.9667 122.599 43.9789 122.156 46.4832 122.427 49.9247 123.722 51.7995 123.549 51.7255 123.352 51.7255 123.167 51.775 118.948 53.0578 116.321 53.6623 115.421 52.3054 114.471 50.7141 117.604 46.3104 123.204 41.808Z" fill="#FFFFFF" fill-rule="evenodd" transform="matrix(1.00158 0 0 1 420.805 108.012)"/><path d="M131.234 59.1023C132.627 56.5734 133.368 55.7099 134.293 54.7353L128.175 54.7353C129.112 55.7099 129.84 56.5734 131.234 59.1023Z" transform="matrix(1.00158 0 0 1 420.805 108.012)"/><path d="M124.203 49.0366C124.536 50.1591 125.079 51.2199 125.794 52.1326L136.648 52.1326C137.376 51.2199 137.907 50.1591 138.24 49.0366L124.203 49.0366Z" transform="matrix(1.00158 0 0 1 420.805 108.012)"/><path d="M138.129 42.7085C136.044 41.191 133.725 39.6617 131.234 38.2058 128.73 39.6617 126.411 41.191 124.339 42.7085 123.932 43.8927 123.746 45.1754 123.784 46.4337L138.684 46.4337C138.721 45.1754 138.536 43.8927 138.129 42.7085Z" transform="matrix(1.00158 0 0 1 420.805 108.012)"/><path d="M147.133 37.8481C146.788 38.1688 146.775 38.7116 147.096 39.0572L147.207 39.1929C152.141 34.9741 155.113 31.7175 153.633 29.1517 152.005 26.882 145.147 27.9552 136.723 31.7421 137.154 30.891 137.364 29.9412 137.364 29.0037 137.364 28.6583 137.339 28.3129 137.278 27.9675 137.08 26.7586 136.513 25.5991 135.576 24.6739 135.07 24.1682 134.49 23.7611 133.873 23.4774L133.898 23.4157 134.539 22.0095C134.638 21.7875 134.539 21.5161 134.317 21.4174 134.095 21.3187 133.824 21.4174 133.725 21.6394L133.022 23.1567C131.863 22.7989 130.605 22.7989 129.433 23.1567L128.73 21.6394C128.631 21.4174 128.36 21.3187 128.138 21.4174 127.916 21.5161 127.817 21.7875 127.916 22.0095L128.545 23.3664 128.594 23.4774C127.977 23.7734 127.397 24.1682 126.892 24.6863 125.671 25.9075 125.079 27.5234 125.103 29.1394 125.116 30.0152 125.313 30.8787 125.695 31.6805 123.525 30.706 111.437 25.6978 109.007 29.1147 106.799 32.2232 113.571 37.6508 115.384 39.205L115.495 39.0693C115.815 38.7241 115.791 38.1812 115.458 37.8606 114.57 37.0217 113.176 35.6402 112.201 34.2955 110.919 32.5316 110.894 31.4831 111.511 30.9033 113.435 29.1024 120.577 31.4831 122.785 32.3342 124.906 33.1484 127.2 34.1847 129.568 35.4304 118.258 41.9929 110.573 49.826 112.387 52.9715 113.521 54.9451 118.258 54.6861 124.339 52.5398L124.117 52.1821C123.907 51.8366 123.512 51.6884 123.13 51.7995 118.911 53.0823 116.284 53.6869 115.384 52.33 114.113 50.1342 120.552 42.5728 130.543 36.7997L131.295 36.368C131.542 36.5037 131.801 36.6516 132.048 36.7997 142.039 42.5728 148.477 50.1342 147.207 52.33 146.294 53.6869 143.667 53.0823 139.461 51.7995 139.078 51.6884 138.684 51.8366 138.474 52.1821L138.252 52.5398C144.333 54.6861 149.069 54.9451 150.204 52.9715 152.017 49.826 144.333 41.9929 133.022 35.4304 140.99 31.2364 148.157 29.3614 150.796 30.706 153.152 31.8902 149.008 36.072 147.133 37.8481ZM126.127 29.8055C125.757 27.5358 126.966 25.2537 129.063 24.2915 129.421 26.5613 128.212 28.831 126.127 29.8055ZM136.303 29.8055C134.206 28.831 133.01 26.5613 133.368 24.2915 135.464 25.2537 136.673 27.5358 136.303 29.8055Z" fill-rule="evenodd" transform="matrix(1.00158 0 0 1 420.805 108.012)"/><path d="M136.303 29.8055C134.206 28.831 133.01 26.5613 133.368 24.2916 135.464 25.2537 136.673 27.5358 136.303 29.8055Z" fill="#FFFFFF" fill-rule="evenodd" transform="matrix(1.00158 0 0 1 420.805 108.012)"/><path d="M131.036 84.4146C125.831 84.4146 120.663 83.5511 117.024 82.6626 110.573 81.0838 106.836 77.5561 106.774 73.806 106.774 70.352 109.402 68.588 114.249 68.1562 115.075 65.2822 118.616 62.5313 122.772 62.4697 124.289 62.4451 125.695 63.1604 126.423 63.6292 129.174 61.3718 132.319 59.3734 136.377 59.3734 143.235 59.3734 149.205 63.1234 150.513 68.1687 154.213 69.4515 156.322 71.3388 156.322 74.2007 156.322 76.1497 155.101 78.4563 152.807 80.0105 151.031 81.195 147.429 82.4902 145.073 82.9957 141.262 83.7976 136.747 84.4146 131.036 84.4146Z" transform="matrix(1.00158 0 0 1 420.805 108.012)"/><path d="M130.272 82.5269C124.499 82.5269 119.158 81.4169 117.135 80.9356 111.757 79.6653 108.254 76.8529 108.193 73.769 108.193 72.7943 108.193 70.1793 114.311 69.6364L115.075 69.5747 115.285 68.8594C115.914 66.7502 118.801 64.4311 122.365 64.3816L122.414 64.3816C123.45 64.3816 124.548 64.8504 125.227 65.2822L125.917 65.7264 126.559 65.2081C128.853 63.3824 131.702 61.5075 135.366 61.5075 141.336 61.5075 146.676 64.6531 147.786 68.8348L147.935 69.4023 148.502 69.5997C152.807 71.0552 153.3 72.893 153.3 74.1637 153.3 75.755 152.178 77.5066 150.439 78.6415 148.86 79.6653 145.542 80.8124 143.433 81.2441 139.14 82.1076 134.959 82.5269 130.272 82.5269Z" fill="#FFFFFF" transform="matrix(1.00158 0 0 1 420.805 108.012)"/></g></svg>